# xmcd
# 
# Track frame offsets:
#     187
#     24810
#     43437
#     64215
#     92382
#     127805
#     149357
#     175355
#     193202
#     246052
#     268055
# 
# Disc length: 3850
# 
# Revision: 1
# Processed by: cddbd v1.5.2PL0 Copyright (c) Steve Scherf et al.
# Submitted via: BonkEnc v1.0.8
# 
DISCID=9b0f080b
DTITLE=金子飛鳥 - Multi Venus
DYEAR=1992
DGENRE=Fusion
TTITLE0=Death Dance
TTITLE1=From Crater Walls -月よりの警告-
TTITLE2=銀の月 黒い瞳
TTITLE3=Walking Eyes
TTITLE4=Replica of the History
TTITLE5=邂逅
TTITLE6=翼は雲になって
TTITLE7=Basquelo
TTITLE8=ジェンネ ジェノ
TTITLE9=Graduale
TTITLE10=Softly
EXTD=YEAR: 1992
EXTT0=
EXTT1=
EXTT2=
EXTT3=
EXTT4=
EXTT5=
EXTT6=
EXTT7=
EXTT8=
EXTT9=
EXTT10=
PLAYORDER=
